<svg width="9" height="8" viewBox="0 0 9 8" fill="none" xmlns="http://www.w3.org/2000/svg">
<path d="M7.3125 7.5H3.09375C2.94461 7.49987 2.80162 7.44715 2.69617 7.35341C2.59071 7.25967 2.5314 7.13257 2.53125 7V5.5H3.09375V7H7.3125V1.5H4.78125V1H7.3125C7.46164 1.00013 7.60463 1.05285 7.71008 1.14659C7.81554 1.24033 7.87485 1.36743 7.875 1.5V7C7.87485 7.13257 7.81554 7.25967 7.71008 7.35341C7.60463 7.44715 7.46164 7.49987 7.3125 7.5Z" fill="#1D0E4A"/>
<path d="M4.78125 2.5H6.75V3H4.78125V2.5ZM4.5 3.75H6.75V4.25H4.5V3.75ZM4.21875 5H6.75V5.5H4.21875V5ZM2.53125 4.75C2.1584 4.74967 1.80093 4.61787 1.53729 4.38352C1.27365 4.14917 1.12537 3.83142 1.125 3.5V0.75H1.6875V3.5C1.6875 3.69891 1.77639 3.88968 1.93463 4.03033C2.09286 4.17098 2.30747 4.25 2.53125 4.25C2.75503 4.25 2.96964 4.17098 3.12787 4.03033C3.28611 3.88968 3.375 3.69891 3.375 3.5V1.25C3.375 1.1837 3.34537 1.12011 3.29262 1.07322C3.23988 1.02634 3.16834 1 3.09375 1C3.01916 1 2.94762 1.02634 2.89488 1.07322C2.84213 1.12011 2.8125 1.1837 2.8125 1.25V3.75H2.25V1.25C2.25 1.05109 2.33889 0.860322 2.49713 0.71967C2.65536 0.579018 2.86997 0.5 3.09375 0.5C3.31753 0.5 3.53214 0.579018 3.69037 0.71967C3.84861 0.860322 3.9375 1.05109 3.9375 1.25V3.5C3.93713 3.83142 3.78885 4.14917 3.52521 4.38352C3.26157 4.61787 2.9041 4.74967 2.53125 4.75Z" fill="#1D0E4A"/>
</svg>
