<svg width="10" height="13" viewBox="0 0 10 13" fill="none" xmlns="http://www.w3.org/2000/svg">
<path d="M7.15921 2.02054H9.14158C9.32396 2.02054 9.47197 1.90738 9.47197 1.76794V0.252354C9.47197 0.11292 9.32396 -0.000244141 9.14158 -0.000244141H7.15921C5.1557 -0.000244141 3.52487 1.24607 3.52487 2.77833V4.54652H1.21211C1.02973 4.54652 0.881714 4.65968 0.881714 4.79912V6.3147C0.881714 6.45414 1.02973 6.5673 1.21211 6.5673H3.52487V11.8719C3.52487 12.0113 3.67289 12.1245 3.85527 12.1245H5.83763C6.02001 12.1245 6.16803 12.0113 6.16803 11.8719V6.5673H8.48079C8.62286 6.5673 8.74907 6.49759 8.79466 6.39453L9.45545 4.87894C9.48915 4.80215 9.47197 4.71727 9.40986 4.65109C9.34708 4.58542 9.24797 4.54652 9.14158 4.54652H6.16803V2.77833C6.16803 2.36054 6.61274 2.02054 7.15921 2.02054Z" fill="white"/>
</svg>
