<svg width="16" height="12" viewBox="0 0 16 12" fill="none" xmlns="http://www.w3.org/2000/svg">
<path d="M2.61904 2.9671C3.6289 2.9671 4.44755 2.30289 4.44755 1.48355C4.44755 0.664208 3.6289 0 2.61904 0C1.60918 0 0.790527 0.664208 0.790527 1.48355C0.790527 2.30289 1.60918 2.9671 2.61904 2.9671Z" fill="white"/>
<path d="M4.14268 3.95801H1.09516C0.926934 3.95801 0.790405 4.06878 0.790405 4.20527V11.623C0.790405 11.7595 0.926934 11.8703 1.09516 11.8703H4.14268C4.3109 11.8703 4.44743 11.7595 4.44743 11.623V4.20527C4.44743 4.06878 4.3109 3.95801 4.14268 3.95801Z" fill="white"/>
<path d="M13.2242 3.54665C11.9217 3.18466 10.2925 3.50263 9.31549 4.07281C9.28197 3.96649 9.1625 3.88737 9.02049 3.88737H5.97297C5.80474 3.88737 5.66821 3.99814 5.66821 4.13463V11.5524C5.66821 11.6889 5.80474 11.7996 5.97297 11.7996H9.02049C9.18871 11.7996 9.32524 11.6889 9.32524 11.5524V6.22149C9.81772 5.8773 10.4522 5.76752 10.9715 5.94653C11.475 6.11912 11.7633 6.54045 11.7633 7.10172V11.5524C11.7633 11.6889 11.8998 11.7996 12.068 11.7996H15.1155C15.2838 11.7996 15.4203 11.6889 15.4203 11.5524V6.60375C15.3855 4.57178 14.2074 3.81962 13.2242 3.54665Z" fill="white"/>
</svg>
