<svg width="16" height="11" viewBox="0 0 16 11" fill="none" xmlns="http://www.w3.org/2000/svg">
<path d="M15.8721 1.26468C15.772 1.17289 15.6107 1.14981 15.4783 1.20642C15.396 1.2416 15.2412 1.28776 15.0575 1.33338C15.2893 1.07616 15.4757 0.788169 15.558 0.529303C15.5936 0.417733 15.5415 0.300117 15.4283 0.233614C15.315 0.167661 15.1642 0.167661 15.0509 0.233614C14.8724 0.33749 14.011 0.649668 13.4663 0.750795C12.2354 -0.148913 10.803 -0.242346 9.31391 0.483136C8.10342 1.07287 7.83999 2.27211 7.89136 3.00309C5.12068 2.7805 3.39846 1.55927 2.42902 0.54854C2.36119 0.47764 2.25186 0.440267 2.14912 0.445763C2.04111 0.452358 1.94364 0.502373 1.88832 0.579867C1.42994 1.22566 1.30283 1.9396 1.52214 2.64474C1.64201 3.02947 1.85144 3.36858 2.09446 3.64338C1.97789 3.59557 1.86527 3.53566 1.75924 3.46421C1.66177 3.39716 1.52544 3.38452 1.41018 3.42904C1.29559 3.47465 1.22249 3.57138 1.22249 3.67746C1.22249 4.88825 2.13002 5.69617 2.97763 6.11827C2.84064 6.10453 2.69773 6.07925 2.5535 6.04242C2.42968 6.01109 2.29533 6.04242 2.20971 6.12376C2.1241 6.20456 2.10368 6.31997 2.15702 6.41835C2.63318 7.29718 3.53545 7.90175 4.65176 8.12104C3.67705 8.59865 2.37238 8.83278 1.1777 8.71791C1.02293 8.69978 0.875411 8.78167 0.826675 8.90588C0.777939 9.03009 0.841823 9.16639 0.97815 9.23015C2.79059 10.0793 4.42916 10.3827 5.84512 10.3827C7.90585 10.3827 9.49634 9.74073 10.4645 9.20377C13.0745 7.7583 14.7012 5.16305 14.4746 2.84096C14.8928 2.58319 15.5185 2.10723 15.9064 1.59554C15.9867 1.49222 15.9722 1.35591 15.8721 1.26468Z" fill="white"/>
</svg>
