<svg width="8" height="61" viewBox="0 0 8 61" fill="none" xmlns="http://www.w3.org/2000/svg">
<path d="M3.82323 60.1768C3.92086 60.2744 4.07915 60.2744 4.17678 60.1768L5.76777 58.5858C5.8654 58.4882 5.8654 58.3299 5.76777 58.2322C5.67014 58.1346 5.51185 58.1346 5.41422 58.2322L4 59.6465L2.58579 58.2322C2.48816 58.1346 2.32987 58.1346 2.23224 58.2322C2.1346 58.3299 2.1346 58.4882 2.23224 58.5858L3.82323 60.1768ZM3.75 0.5C3.75 0.638071 3.86193 0.75 4 0.75C4.13807 0.75 4.25 0.638071 4.25 0.5L3.75 0.5ZM4.25 2.5C4.25 2.36193 4.13807 2.25 4 2.25C3.86193 2.25 3.75 2.36193 3.75 2.5L4.25 2.5ZM3.75 3.5C3.75 3.63807 3.86193 3.75 4 3.75C4.13807 3.75 4.25 3.63807 4.25 3.5L3.75 3.5ZM4.25 5.5C4.25 5.36193 4.13807 5.25 4 5.25C3.86193 5.25 3.75 5.36193 3.75 5.5L4.25 5.5ZM3.75 6.5C3.75 6.63807 3.86193 6.75 4 6.75C4.13807 6.75 4.25 6.63807 4.25 6.5L3.75 6.5ZM4.25 8.5C4.25 8.36193 4.13807 8.25 4 8.25C3.86193 8.25 3.75 8.36193 3.75 8.5L4.25 8.5ZM3.75 9.5C3.75 9.63807 3.86193 9.75 4 9.75C4.13807 9.75 4.25 9.63807 4.25 9.5L3.75 9.5ZM4.25 11.5C4.25 11.3619 4.13807 11.25 4 11.25C3.86193 11.25 3.75 11.3619 3.75 11.5L4.25 11.5ZM3.75 12.5C3.75 12.6381 3.86193 12.75 4 12.75C4.13807 12.75 4.25 12.6381 4.25 12.5L3.75 12.5ZM4.25 14.5C4.25 14.3619 4.13807 14.25 4 14.25C3.86193 14.25 3.75 14.3619 3.75 14.5L4.25 14.5ZM3.75 15.5C3.75 15.6381 3.86193 15.75 4 15.75C4.13807 15.75 4.25 15.6381 4.25 15.5L3.75 15.5ZM4.25 17.5C4.25 17.3619 4.13807 17.25 4 17.25C3.86193 17.25 3.75 17.3619 3.75 17.5L4.25 17.5ZM3.75 18.5C3.75 18.6381 3.86193 18.75 4 18.75C4.13807 18.75 4.25 18.6381 4.25 18.5L3.75 18.5ZM4.25 20.5C4.25 20.3619 4.13807 20.25 4 20.25C3.86193 20.25 3.75 20.3619 3.75 20.5L4.25 20.5ZM3.75 21.5C3.75 21.6381 3.86193 21.75 4 21.75C4.13807 21.75 4.25 21.6381 4.25 21.5L3.75 21.5ZM4.25 23.5C4.25 23.3619 4.13807 23.25 4 23.25C3.86193 23.25 3.75 23.3619 3.75 23.5L4.25 23.5ZM3.75 24.5C3.75 24.6381 3.86193 24.75 4 24.75C4.13807 24.75 4.25 24.6381 4.25 24.5L3.75 24.5ZM4.25 26.5C4.25 26.3619 4.13807 26.25 4 26.25C3.86193 26.25 3.75 26.3619 3.75 26.5L4.25 26.5ZM3.75 27.5C3.75 27.6381 3.86193 27.75 4 27.75C4.13807 27.75 4.25 27.6381 4.25 27.5L3.75 27.5ZM4.25 29.5C4.25 29.3619 4.13807 29.25 4 29.25C3.86193 29.25 3.75 29.3619 3.75 29.5L4.25 29.5ZM3.75 30.5C3.75 30.6381 3.86193 30.75 4 30.75C4.13807 30.75 4.25 30.6381 4.25 30.5L3.75 30.5ZM4.25 32.5C4.25 32.3619 4.13807 32.25 4 32.25C3.86193 32.25 3.75 32.3619 3.75 32.5L4.25 32.5ZM3.75 33.5C3.75 33.6381 3.86193 33.75 4 33.75C4.13807 33.75 4.25 33.6381 4.25 33.5L3.75 33.5ZM4.25 35.5C4.25 35.3619 4.13807 35.25 4 35.25C3.86193 35.25 3.75 35.3619 3.75 35.5L4.25 35.5ZM3.75 36.5C3.75 36.6381 3.86193 36.75 4 36.75C4.13807 36.75 4.25 36.6381 4.25 36.5L3.75 36.5ZM4.25 38.5C4.25 38.3619 4.13807 38.25 4 38.25C3.86193 38.25 3.75 38.3619 3.75 38.5L4.25 38.5ZM3.75 39.5C3.75 39.6381 3.86193 39.75 4 39.75C4.13807 39.75 4.25 39.6381 4.25 39.5L3.75 39.5ZM4.25 41.5C4.25 41.3619 4.13807 41.25 4 41.25C3.86193 41.25 3.75 41.3619 3.75 41.5L4.25 41.5ZM3.75 42.5C3.75 42.6381 3.86193 42.75 4 42.75C4.13807 42.75 4.25 42.6381 4.25 42.5L3.75 42.5ZM4.25 44.5C4.25 44.3619 4.13807 44.25 4 44.25C3.86193 44.25 3.75 44.3619 3.75 44.5L4.25 44.5ZM3.75 45.5C3.75 45.6381 3.86193 45.75 4 45.75C4.13807 45.75 4.25 45.6381 4.25 45.5L3.75 45.5ZM4.25 47.5C4.25 47.3619 4.13807 47.25 4 47.25C3.86193 47.25 3.75 47.3619 3.75 47.5L4.25 47.5ZM3.75 48.5C3.75 48.6381 3.86193 48.75 4 48.75C4.13807 48.75 4.25 48.6381 4.25 48.5L3.75 48.5ZM4.25 50.5C4.25 50.3619 4.13807 50.25 4 50.25C3.86193 50.25 3.75 50.3619 3.75 50.5L4.25 50.5ZM3.75 51.5C3.75 51.6381 3.86193 51.75 4 51.75C4.13807 51.75 4.25 51.6381 4.25 51.5L3.75 51.5ZM4.25 53.5C4.25 53.3619 4.13807 53.25 4 53.25C3.86193 53.25 3.75 53.3619 3.75 53.5L4.25 53.5ZM3.75 54.5C3.75 54.6381 3.86193 54.75 4 54.75C4.13807 54.75 4.25 54.6381 4.25 54.5L3.75 54.5ZM4.25 56.5C4.25 56.3619 4.13807 56.25 4 56.25C3.86193 56.25 3.75 56.3619 3.75 56.5L4.25 56.5ZM3.75 57.5C3.75 57.6381 3.86193 57.75 4 57.75C4.13807 57.75 4.25 57.6381 4.25 57.5L3.75 57.5ZM4.25 59.5C4.25 59.3619 4.13807 59.25 4 59.25C3.86193 59.25 3.75 59.3619 3.75 59.5L4.25 59.5ZM3.75 1.09278e-08L3.75 0.5L4.25 0.5L4.25 -1.09278e-08L3.75 1.09278e-08ZM3.75 2.5L3.75 3.5L4.25 3.5L4.25 2.5L3.75 2.5ZM3.75 5.5L3.75 6.5L4.25 6.5L4.25 5.5L3.75 5.5ZM3.75 8.5L3.75 9.5L4.25 9.5L4.25 8.5L3.75 8.5ZM3.75 11.5L3.75 12.5L4.25 12.5L4.25 11.5L3.75 11.5ZM3.75 14.5L3.75 15.5L4.25 15.5L4.25 14.5L3.75 14.5ZM3.75 17.5L3.75 18.5L4.25 18.5L4.25 17.5L3.75 17.5ZM3.75 20.5L3.75 21.5L4.25 21.5L4.25 20.5L3.75 20.5ZM3.75 23.5L3.75 24.5L4.25 24.5L4.25 23.5L3.75 23.5ZM3.75 26.5L3.75 27.5L4.25 27.5L4.25 26.5L3.75 26.5ZM3.75 29.5L3.75 30.5L4.25 30.5L4.25 29.5L3.75 29.5ZM3.75 32.5L3.75 33.5L4.25 33.5L4.25 32.5L3.75 32.5ZM3.75 35.5L3.75 36.5L4.25 36.5L4.25 35.5L3.75 35.5ZM3.75 38.5L3.75 39.5L4.25 39.5L4.25 38.5L3.75 38.5ZM3.75 41.5L3.75 42.5L4.25 42.5L4.25 41.5L3.75 41.5ZM3.75 44.5L3.75 45.5L4.25 45.5L4.25 44.5L3.75 44.5ZM3.75 47.5L3.75 48.5L4.25 48.5L4.25 47.5L3.75 47.5ZM3.75 50.5L3.75 51.5L4.25 51.5L4.25 50.5L3.75 50.5ZM3.75 53.5L3.75 54.5L4.25 54.5L4.25 53.5L3.75 53.5ZM3.75 56.5L3.75 57.5L4.25 57.5L4.25 56.5L3.75 56.5ZM3.75 59.5L3.75 60L4.25 60L4.25 59.5L3.75 59.5ZM3.64645 60.3536C3.84171 60.5488 4.15829 60.5488 4.35356 60.3536L7.53554 57.1716C7.7308 56.9763 7.7308 56.6597 7.53554 56.4645C7.34027 56.2692 7.02369 56.2692 6.82843 56.4645L4 59.2929L1.17158 56.4645C0.976313 56.2692 0.659731 56.2692 0.464469 56.4645C0.269206 56.6597 0.269206 56.9763 0.464469 57.1716L3.64645 60.3536ZM3.5 0.5C3.5 0.776142 3.72386 1 4 1C4.27614 1 4.5 0.776142 4.5 0.5L3.5 0.5ZM4.5 2.5C4.5 2.22386 4.27614 2 4 2C3.72386 2 3.5 2.22386 3.5 2.5L4.5 2.5ZM3.5 3.5C3.5 3.77614 3.72386 4 4 4C4.27614 4 4.5 3.77614 4.5 3.5L3.5 3.5ZM4.5 5.5C4.5 5.22386 4.27614 5 4 5C3.72386 5 3.5 5.22386 3.5 5.5L4.5 5.5ZM3.5 6.5C3.5 6.77614 3.72386 7 4 7C4.27614 7 4.5 6.77614 4.5 6.5L3.5 6.5ZM4.5 8.5C4.5 8.22386 4.27614 8 4 8C3.72386 8 3.5 8.22386 3.5 8.5L4.5 8.5ZM3.5 9.5C3.5 9.77614 3.72386 10 4 10C4.27614 10 4.5 9.77614 4.5 9.5L3.5 9.5ZM4.5 11.5C4.5 11.2239 4.27614 11 4 11C3.72386 11 3.5 11.2239 3.5 11.5L4.5 11.5ZM3.5 12.5C3.5 12.7761 3.72386 13 4 13C4.27614 13 4.5 12.7761 4.5 12.5L3.5 12.5ZM4.5 14.5C4.5 14.2239 4.27614 14 4 14C3.72386 14 3.5 14.2239 3.5 14.5L4.5 14.5ZM3.5 15.5C3.5 15.7761 3.72386 16 4 16C4.27614 16 4.5 15.7761 4.5 15.5L3.5 15.5ZM4.5 17.5C4.5 17.2239 4.27614 17 4 17C3.72386 17 3.5 17.2239 3.5 17.5L4.5 17.5ZM3.5 18.5C3.5 18.7761 3.72386 19 4 19C4.27614 19 4.5 18.7761 4.5 18.5L3.5 18.5ZM4.5 20.5C4.5 20.2239 4.27614 20 4 20C3.72386 20 3.5 20.2239 3.5 20.5L4.5 20.5ZM3.5 21.5C3.5 21.7761 3.72386 22 4 22C4.27614 22 4.5 21.7761 4.5 21.5L3.5 21.5ZM4.5 23.5C4.5 23.2239 4.27614 23 4 23C3.72386 23 3.5 23.2239 3.5 23.5L4.5 23.5ZM3.5 24.5C3.5 24.7761 3.72386 25 4 25C4.27614 25 4.5 24.7761 4.5 24.5L3.5 24.5ZM4.5 26.5C4.5 26.2239 4.27614 26 4 26C3.72386 26 3.5 26.2239 3.5 26.5L4.5 26.5ZM3.5 27.5C3.5 27.7761 3.72386 28 4 28C4.27614 28 4.5 27.7761 4.5 27.5L3.5 27.5ZM4.5 29.5C4.5 29.2239 4.27614 29 4 29C3.72386 29 3.5 29.2239 3.5 29.5L4.5 29.5ZM3.5 30.5C3.5 30.7761 3.72386 31 4 31C4.27614 31 4.5 30.7761 4.5 30.5L3.5 30.5ZM4.5 32.5C4.5 32.2239 4.27614 32 4 32C3.72386 32 3.5 32.2239 3.5 32.5L4.5 32.5ZM3.5 33.5C3.5 33.7761 3.72386 34 4 34C4.27614 34 4.5 33.7761 4.5 33.5L3.5 33.5ZM4.5 35.5C4.5 35.2239 4.27614 35 4 35C3.72386 35 3.5 35.2239 3.5 35.5L4.5 35.5ZM3.5 36.5C3.5 36.7761 3.72386 37 4 37C4.27614 37 4.5 36.7761 4.5 36.5L3.5 36.5ZM4.5 38.5C4.5 38.2239 4.27614 38 4 38C3.72386 38 3.5 38.2239 3.5 38.5L4.5 38.5ZM3.5 39.5C3.5 39.7761 3.72386 40 4 40C4.27614 40 4.5 39.7761 4.5 39.5L3.5 39.5ZM4.5 41.5C4.5 41.2239 4.27614 41 4 41C3.72386 41 3.5 41.2239 3.5 41.5L4.5 41.5ZM3.5 42.5C3.5 42.7761 3.72386 43 4 43C4.27614 43 4.5 42.7761 4.5 42.5L3.5 42.5ZM4.5 44.5C4.5 44.2239 4.27614 44 4 44C3.72386 44 3.5 44.2239 3.5 44.5L4.5 44.5ZM3.5 45.5C3.5 45.7761 3.72386 46 4 46C4.27614 46 4.5 45.7761 4.5 45.5L3.5 45.5ZM4.5 47.5C4.5 47.2239 4.27614 47 4 47C3.72386 47 3.5 47.2239 3.5 47.5L4.5 47.5ZM3.5 48.5C3.5 48.7761 3.72386 49 4 49C4.27614 49 4.5 48.7761 4.5 48.5L3.5 48.5ZM4.5 50.5C4.5 50.2239 4.27614 50 4 50C3.72386 50 3.5 50.2239 3.5 50.5L4.5 50.5ZM3.5 51.5C3.5 51.7761 3.72386 52 4 52C4.27614 52 4.5 51.7761 4.5 51.5L3.5 51.5ZM4.5 53.5C4.5 53.2239 4.27614 53 4 53C3.72386 53 3.5 53.2239 3.5 53.5L4.5 53.5ZM3.5 54.5C3.5 54.7761 3.72386 55 4 55C4.27614 55 4.5 54.7761 4.5 54.5L3.5 54.5ZM4.5 56.5C4.5 56.2239 4.27614 56 4 56C3.72386 56 3.5 56.2239 3.5 56.5L4.5 56.5ZM3.5 57.5C3.5 57.7761 3.72386 58 4 58C4.27614 58 4.5 57.7761 4.5 57.5L3.5 57.5ZM4.5 59.5C4.5 59.2239 4.27614 59 4 59C3.72386 59 3.5 59.2239 3.5 59.5L4.5 59.5ZM3.5 2.18557e-08L3.5 0.5L4.5 0.5L4.5 -2.18557e-08L3.5 2.18557e-08ZM3.5 2.5L3.5 3.5L4.5 3.5L4.5 2.5L3.5 2.5ZM3.5 5.5L3.5 6.5L4.5 6.5L4.5 5.5L3.5 5.5ZM3.5 8.5L3.5 9.5L4.5 9.5L4.5 8.5L3.5 8.5ZM3.5 11.5L3.5 12.5L4.5 12.5L4.5 11.5L3.5 11.5ZM3.5 14.5L3.5 15.5L4.5 15.5L4.5 14.5L3.5 14.5ZM3.5 17.5L3.5 18.5L4.5 18.5L4.5 17.5L3.5 17.5ZM3.5 20.5L3.5 21.5L4.5 21.5L4.5 20.5L3.5 20.5ZM3.5 23.5L3.5 24.5L4.5 24.5L4.5 23.5L3.5 23.5ZM3.5 26.5L3.5 27.5L4.5 27.5L4.5 26.5L3.5 26.5ZM3.5 29.5L3.5 30.5L4.5 30.5L4.5 29.5L3.5 29.5ZM3.5 32.5L3.5 33.5L4.5 33.5L4.5 32.5L3.5 32.5ZM3.5 35.5L3.5 36.5L4.5 36.5L4.5 35.5L3.5 35.5ZM3.5 38.5L3.5 39.5L4.5 39.5L4.5 38.5L3.5 38.5ZM3.5 41.5L3.5 42.5L4.5 42.5L4.5 41.5L3.5 41.5ZM3.5 44.5L3.5 45.5L4.5 45.5L4.5 44.5L3.5 44.5ZM3.5 47.5L3.5 48.5L4.5 48.5L4.5 47.5L3.5 47.5ZM3.5 50.5L3.5 51.5L4.5 51.5L4.5 50.5L3.5 50.5ZM3.5 53.5L3.5 54.5L4.5 54.5L4.5 53.5L3.5 53.5ZM3.5 56.5L3.5 57.5L4.5 57.5L4.5 56.5L3.5 56.5ZM3.5 59.5L3.5 60L4.5 60L4.5 59.5L3.5 59.5Z" fill="#4ACE4F"/>
</svg>
