<svg width="8" height="61" viewBox="0 0 8 61" fill="none" xmlns="http://www.w3.org/2000/svg">
<path d="M3.82323 60.1768C3.92086 60.2744 4.07915 60.2744 4.17678 60.1768L5.76777 58.5858C5.8654 58.4882 5.8654 58.3299 5.76777 58.2322C5.67014 58.1346 5.51185 58.1346 5.41422 58.2322L4 59.6465L2.58579 58.2322C2.48816 58.1346 2.32987 58.1346 2.23224 58.2322C2.1346 58.3299 2.1346 58.4882 2.23224 58.5858L3.82323 60.1768ZM3.75 1.16947e-08L3.75 0.5L4.25 0.5L4.25 -1.16947e-08L3.75 1.16947e-08ZM3.75 2.5L3.75 3.5L4.25 3.5L4.25 2.5L3.75 2.5ZM3.75 5.5L3.75 6.5L4.25 6.5L4.25 5.5L3.75 5.5ZM3.75 8.5L3.75 9.5L4.25 9.5L4.25 8.5L3.75 8.5ZM3.75 11.5L3.75 12.5L4.25 12.5L4.25 11.5L3.75 11.5ZM3.75 14.5L3.75 15.5L4.25 15.5L4.25 14.5L3.75 14.5ZM3.75 17.5L3.75 18.5L4.25 18.5L4.25 17.5L3.75 17.5ZM3.75 20.5L3.75 21.5L4.25 21.5L4.25 20.5L3.75 20.5ZM3.75 23.5L3.75 24.5L4.25 24.5L4.25 23.5L3.75 23.5ZM3.75 26.5L3.75 27.5L4.25 27.5L4.25 26.5L3.75 26.5ZM3.75 29.5L3.75 30.5L4.25 30.5L4.25 29.5L3.75 29.5ZM3.75 32.5L3.75 33.5L4.25 33.5L4.25 32.5L3.75 32.5ZM3.75 35.5L3.75 36.5L4.25 36.5L4.25 35.5L3.75 35.5ZM3.75 38.5L3.75 39.5L4.25 39.5L4.25 38.5L3.75 38.5ZM3.75 41.5L3.75 42.5L4.25 42.5L4.25 41.5L3.75 41.5ZM3.75 44.5L3.75 45.5L4.25 45.5L4.25 44.5L3.75 44.5ZM3.75 47.5L3.75 48.5L4.25 48.5L4.25 47.5L3.75 47.5ZM3.75 50.5L3.75 51.5L4.25 51.5L4.25 50.5L3.75 50.5ZM3.75 53.5L3.75 54.5L4.25 54.5L4.25 53.5L3.75 53.5ZM3.75 56.5L3.75 57.5L4.25 57.5L4.25 56.5L3.75 56.5ZM3.75 59.5L3.75 60L4.25 60L4.25 59.5L3.75 59.5ZM3.64645 60.3536C3.84171 60.5488 4.15829 60.5488 4.35356 60.3536L7.53554 57.1716C7.7308 56.9763 7.7308 56.6597 7.53554 56.4645C7.34027 56.2692 7.02369 56.2692 6.82843 56.4645L4 59.2929L1.17158 56.4645C0.976313 56.2692 0.659731 56.2692 0.464469 56.4645C0.269207 56.6597 0.269207 56.9763 0.464469 57.1716L3.64645 60.3536ZM3.5 2.33894e-08L3.5 0.5L4.5 0.5L4.5 -2.33894e-08L3.5 2.33894e-08ZM3.5 2.5L3.5 3.5L4.5 3.5L4.5 2.5L3.5 2.5ZM3.5 5.5L3.5 6.5L4.5 6.5L4.5 5.5L3.5 5.5ZM3.5 8.5L3.5 9.5L4.5 9.5L4.5 8.5L3.5 8.5ZM3.5 11.5L3.5 12.5L4.5 12.5L4.5 11.5L3.5 11.5ZM3.5 14.5L3.5 15.5L4.5 15.5L4.5 14.5L3.5 14.5ZM3.5 17.5L3.5 18.5L4.5 18.5L4.5 17.5L3.5 17.5ZM3.5 20.5L3.5 21.5L4.5 21.5L4.5 20.5L3.5 20.5ZM3.5 23.5L3.5 24.5L4.5 24.5L4.5 23.5L3.5 23.5ZM3.5 26.5L3.5 27.5L4.5 27.5L4.5 26.5L3.5 26.5ZM3.5 29.5L3.5 30.5L4.5 30.5L4.5 29.5L3.5 29.5ZM3.5 32.5L3.5 33.5L4.5 33.5L4.5 32.5L3.5 32.5ZM3.5 35.5L3.5 36.5L4.5 36.5L4.5 35.5L3.5 35.5ZM3.5 38.5L3.5 39.5L4.5 39.5L4.5 38.5L3.5 38.5ZM3.5 41.5L3.5 42.5L4.5 42.5L4.5 41.5L3.5 41.5ZM3.5 44.5L3.5 45.5L4.5 45.5L4.5 44.5L3.5 44.5ZM3.5 47.5L3.5 48.5L4.5 48.5L4.5 47.5L3.5 47.5ZM3.5 50.5L3.5 51.5L4.5 51.5L4.5 50.5L3.5 50.5ZM3.5 53.5L3.5 54.5L4.5 54.5L4.5 53.5L3.5 53.5ZM3.5 56.5L3.5 57.5L4.5 57.5L4.5 56.5L3.5 56.5ZM3.5 59.5L3.5 60L4.5 60L4.5 59.5L3.5 59.5Z" fill="black"/>
</svg>
